<?xml version="1.0" encoding="UTF-8" standalone="no"?>
<!-- Created with Inkscape (http://www.inkscape.org/) -->

<svg
   width="120"
   height="120"
   viewBox="0 0 120 120"
   version="1.1"
   id="svg5"
   xml:space="preserve"
   inkscape:version="1.2.2 (b0a8486541, 2022-12-01)"
   sodipodi:docname="lost_pet_icon.svg"
   xmlns:inkscape="http://www.inkscape.org/namespaces/inkscape"
   xmlns:sodipodi="http://sodipodi.sourceforge.net/DTD/sodipodi-0.dtd"
   xmlns="http://www.w3.org/2000/svg"
   xmlns:svg="http://www.w3.org/2000/svg"><sodipodi:namedview
     id="namedview7"
     pagecolor="#505050"
     bordercolor="#eeeeee"
     borderopacity="1"
     inkscape:showpageshadow="0"
     inkscape:pageopacity="0"
     inkscape:pagecheckerboard="0"
     inkscape:deskcolor="#505050"
     inkscape:document-units="px"
     showgrid="false"
     inkscape:zoom="6.3995328"
     inkscape:cx="47.112814"
     inkscape:cy="50.550565"
     inkscape:window-width="1920"
     inkscape:window-height="1058"
     inkscape:window-x="0"
     inkscape:window-y="0"
     inkscape:window-maximized="1"
     inkscape:current-layer="layer1" /><defs
     id="defs2" /><g
     inkscape:label="Layer 1"
     inkscape:groupmode="layer"
     id="layer1"><path
       id="path820-6"
       style="fill:#000000;stroke-width:0"
       d="M 56.173828 8.2441406 A 47.999348 47.671017 0 0 0 8.1738281 55.914062 A 47.999348 47.671017 0 0 0 56.173828 103.58594 A 47.999348 47.671017 0 0 0 84.167969 94.496094 L 98.900391 109.22852 L 98.917969 109.21094 A 7.7135177 7.7135177 0 0 0 104.17383 111.29883 A 7.7135177 7.7135177 0 0 0 111.88672 103.58594 A 7.7135177 7.7135177 0 0 0 109.80859 98.322266 L 109.81055 98.320312 L 109.73828 98.248047 A 7.7135177 7.7135177 0 0 0 109.50977 98.019531 L 95.101562 83.611328 A 47.999348 47.671017 0 0 0 104.17383 55.914062 A 47.999348 47.671017 0 0 0 56.173828 8.2441406 z " /><ellipse
       style="fill:#f2f2f2;stroke-width:0"
       id="path820"
       cx="56.173588"
       cy="55.914917"
       rx="33.240887"
       ry="33.013508" /><ellipse
       style="fill:#000000;stroke-width:0"
       id="path354"
       cx="-37.572884"
       cy="48.863735"
       rx="5.8116913"
       ry="8.2421846"
       transform="scale(-1,1)" /><ellipse
       style="fill:#000000;stroke-width:0"
       id="path354-3"
       cx="-49.618397"
       cy="40.621552"
       rx="5.8116913"
       ry="8.2421846"
       transform="scale(-1,1)" /><ellipse
       style="fill:#000000;stroke-width:0"
       id="path354-3-6"
       cx="-64.021324"
       cy="40.621552"
       rx="5.8116913"
       ry="8.2421846"
       transform="scale(-1,1)" /><ellipse
       style="fill:#000000;stroke-width:0"
       id="path354-3-6-7"
       cx="-75.245468"
       cy="48.863735"
       rx="5.8116913"
       ry="8.2421846"
       transform="scale(-1,1)" /><path
       id="path672"
       style="fill:#000000;stroke-width:0"
       d="m 56.408203,49.5 c -6.652211,2.06e-4 -12.044765,3.405201 -12.044922,7.605469 -4.690266,9.26e-4 -7.958197,4.370346 -7.958256,10.653032 5.9e-5,6.282686 3.700805,12.081299 8.150336,11.968694 6.388671,-0.161679 6.497685,-2.852274 11.19402,-2.933992 4.924542,-0.08569 7.185652,3.014021 12.433211,2.800685 4.324133,-0.175795 7.759501,-5.641497 7.75956,-11.924183 -5.9e-5,-6.282686 -2.757745,-10.56331 -7.448011,-10.564236 l -0.03906,0.0039 v -0.0039 C 68.454921,52.904719 63.061177,49.499525 56.408203,49.5 Z"
       sodipodi:nodetypes="cccssscccsc" /></g></svg>
